<svg width="36" height="36" viewBox="0 0 36 36" fill="none" xmlns="http://www.w3.org/2000/svg">
<path d="M16.5 19.5V24C16.5 24.425 16.6437 24.7812 16.9312 25.0687C17.2187 25.3562 17.575 25.5 18 25.5C18.425 25.5 18.7812 25.3562 19.0687 25.0687C19.3562 24.7812 19.5 24.425 19.5 24V19.5H24C24.425 19.5 24.7812 19.3562 25.0687 19.0687C25.3562 18.7812 25.5 18.425 25.5 18C25.5 17.575 25.3562 17.2187 25.0687 16.9312C24.7812 16.6437 24.425 16.5 24 16.5H19.5V12C19.5 11.575 19.3562 11.2187 19.0687 10.9312C18.7812 10.6437 18.425 10.5 18 10.5C17.575 10.5 17.2187 10.6437 16.9312 10.9312C16.6437 11.2187 16.5 11.575 16.5 12V16.5H12C11.575 16.5 11.2187 16.6437 10.9312 16.9312C10.6437 17.2187 10.5 17.575 10.5 18C10.5 18.425 10.6437 18.7812 10.9312 19.0687C11.2187 19.3562 11.575 19.5 12 19.5H16.5ZM18 33C15.925 33 13.975 32.6062 12.15 31.8187C10.325 31.0312 8.7375 29.9625 7.3875 28.6125C6.0375 27.2625 4.96875 25.675 4.18125 23.85C3.39375 22.025 3 20.075 3 18C3 15.925 3.39375 13.975 4.18125 12.15C4.96875 10.325 6.0375 8.7375 7.3875 7.3875C8.7375 6.0375 10.325 4.96875 12.15 4.18125C13.975 3.39375 15.925 3 18 3C20.075 3 22.025 3.39375 23.85 4.18125C25.675 4.96875 27.2625 6.0375 28.6125 7.3875C29.9625 8.7375 31.0312 10.325 31.8187 12.15C32.6062 13.975 33 15.925 33 18C33 20.075 32.6062 22.025 31.8187 23.85C31.0312 25.675 29.9625 27.2625 28.6125 28.6125C27.2625 29.9625 25.675 31.0312 23.85 31.8187C22.025 32.6062 20.075 33 18 33Z" fill="#1D1D1D"/>
</svg>
