<svg width="36" height="36" viewBox="0 0 36 36" fill="none" xmlns="http://www.w3.org/2000/svg">
<path d="M6 28.5V15C6 14.525 6.10625 14.075 6.31875 13.65C6.53125 13.225 6.825 12.875 7.2 12.6L16.2 5.85C16.725 5.45 17.325 5.25 18 5.25C18.675 5.25 19.275 5.45 19.8 5.85L28.8 12.6C29.175 12.875 29.4688 13.225 29.6813 13.65C29.8938 14.075 30 14.525 30 15V28.5C30 29.325 29.7063 30.0313 29.1188 30.6188C28.5313 31.2063 27.825 31.5 27 31.5H22.5C22.075 31.5 21.7188 31.3563 21.4313 31.0688C21.1438 30.7813 21 30.425 21 30V22.5C21 22.075 20.8563 21.7188 20.5688 21.4313C20.2813 21.1438 19.925 21 19.5 21H16.5C16.075 21 15.7188 21.1438 15.4313 21.4313C15.1438 21.7188 15 22.075 15 22.5V30C15 30.425 14.8563 30.7813 14.5688 31.0688C14.2813 31.3563 13.925 31.5 13.5 31.5H9C8.175 31.5 7.46875 31.2063 6.88125 30.6188C6.29375 30.0313 6 29.325 6 28.5Z" fill="#252728"/>
</svg>
