<svg width="36" height="36" viewBox="0 0 36 36" fill="none" xmlns="http://www.w3.org/2000/svg">
<path d="M16.2375 33C15.5625 33 14.9812 32.775 14.4938 32.325C14.0063 31.875 13.7125 31.325 13.6125 30.675L13.275 28.2C12.95 28.075 12.6438 27.925 12.3563 27.75C12.0688 27.575 11.7875 27.3875 11.5125 27.1875L9.1875 28.1625C8.5625 28.4375 7.9375 28.4625 7.3125 28.2375C6.6875 28.0125 6.2 27.6125 5.85 27.0375L4.0875 23.9625C3.7375 23.3875 3.6375 22.775 3.7875 22.125C3.9375 21.475 4.275 20.9375 4.8 20.5125L6.7875 19.0125C6.7625 18.8375 6.75 18.6687 6.75 18.5062V17.4937C6.75 17.3312 6.7625 17.1625 6.7875 16.9875L4.8 15.4875C4.275 15.0625 3.9375 14.525 3.7875 13.875C3.6375 13.225 3.7375 12.6125 4.0875 12.0375L5.85 8.9625C6.2 8.3875 6.6875 7.9875 7.3125 7.7625C7.9375 7.5375 8.5625 7.5625 9.1875 7.8375L11.5125 8.8125C11.7875 8.6125 12.075 8.425 12.375 8.25C12.675 8.075 12.975 7.925 13.275 7.8L13.6125 5.325C13.7125 4.675 14.0063 4.125 14.4938 3.675C14.9812 3.225 15.5625 3 16.2375 3H19.7625C20.4375 3 21.0187 3.225 21.5063 3.675C21.9937 4.125 22.2875 4.675 22.3875 5.325L22.725 7.8C23.05 7.925 23.3562 8.075 23.6437 8.25C23.9312 8.425 24.2125 8.6125 24.4875 8.8125L26.8125 7.8375C27.4375 7.5625 28.0625 7.5375 28.6875 7.7625C29.3125 7.9875 29.8 8.3875 30.15 8.9625L31.9125 12.0375C32.2625 12.6125 32.3625 13.225 32.2125 13.875C32.0625 14.525 31.725 15.0625 31.2 15.4875L29.2125 16.9875C29.2375 17.1625 29.25 17.3312 29.25 17.4937V18.5062C29.25 18.6687 29.225 18.8375 29.175 19.0125L31.1625 20.5125C31.6875 20.9375 32.025 21.475 32.175 22.125C32.325 22.775 32.225 23.3875 31.875 23.9625L30.075 27.0375C29.725 27.6125 29.2375 28.0125 28.6125 28.2375C27.9875 28.4625 27.3625 28.4375 26.7375 28.1625L24.4875 27.1875C24.2125 27.3875 23.925 27.575 23.625 27.75C23.325 27.925 23.025 28.075 22.725 28.2L22.3875 30.675C22.2875 31.325 21.9937 31.875 21.5063 32.325C21.0187 32.775 20.4375 33 19.7625 33H16.2375ZM18.075 23.25C19.525 23.25 20.7625 22.7375 21.7875 21.7125C22.8125 20.6875 23.325 19.45 23.325 18C23.325 16.55 22.8125 15.3125 21.7875 14.2875C20.7625 13.2625 19.525 12.75 18.075 12.75C16.6 12.75 15.3562 13.2625 14.3438 14.2875C13.3313 15.3125 12.825 16.55 12.825 18C12.825 19.45 13.3313 20.6875 14.3438 21.7125C15.3562 22.7375 16.6 23.25 18.075 23.25Z" fill="#1D1D1D"/>
</svg>
