<svg width="56" height="67" viewBox="0 0 56 67" fill="none" xmlns="http://www.w3.org/2000/svg">
<path d="M28.0001 30.75C28.9681 30.75 29.7796 30.4226 30.4345 29.7677C31.0893 29.1128 31.4167 28.3014 31.4167 27.3333V17.0833C31.4167 16.1153 31.0893 15.3038 30.4345 14.649C29.7796 13.9941 28.9681 13.6667 28.0001 13.6667C27.032 13.6667 26.2206 13.9941 25.5657 14.649C24.9108 15.3038 24.5834 16.1153 24.5834 17.0833V27.3333C24.5834 28.3014 24.9108 29.1128 25.5657 29.7677C26.2206 30.4226 27.032 30.75 28.0001 30.75ZM28.0001 44.4167C28.9681 44.4167 29.7796 44.0892 30.4345 43.4344C31.0893 42.7795 31.4167 41.9681 31.4167 41C31.4167 40.0319 31.0893 39.2205 30.4345 38.5656C29.7796 37.9108 28.9681 37.5833 28.0001 37.5833C27.032 37.5833 26.2206 37.9108 25.5657 38.5656C24.9108 39.2205 24.5834 40.0319 24.5834 41C24.5834 41.9681 24.9108 42.7795 25.5657 43.4344C26.2206 44.0892 27.032 44.4167 28.0001 44.4167ZM28.0001 66.0271C27.2029 66.0271 26.4056 65.8847 25.6084 65.6C24.8112 65.3153 24.0994 64.8882 23.473 64.3187C19.7716 60.9021 16.4973 57.5708 13.6501 54.325C10.8029 51.0792 8.42543 47.933 6.51779 44.8865C4.61015 41.8399 3.15807 38.9073 2.16154 36.0885C1.16501 33.2698 0.666748 30.5792 0.666748 28.0167C0.666748 19.475 3.41432 12.6701 8.90946 7.60208C14.4046 2.53403 20.7681 0 28.0001 0C35.232 0 41.5956 2.53403 47.0907 7.60208C52.5858 12.6701 55.3334 19.475 55.3334 28.0167C55.3334 30.5792 54.8352 33.2698 53.8386 36.0885C52.8421 38.9073 51.39 41.8399 49.4824 44.8865C47.5747 47.933 45.1973 51.0792 42.3501 54.325C39.5029 57.5708 36.2286 60.9021 32.5272 64.3187C31.9008 64.8882 31.189 65.3153 30.3917 65.6C29.5945 65.8847 28.7973 66.0271 28.0001 66.0271Z" fill="#F3484E"/>
</svg>
