<svg width="28" height="28" viewBox="0 0 28 28" fill="none" xmlns="http://www.w3.org/2000/svg">
<path d="M11.1417 14L19.7167 22.575C20.0084 22.8667 20.1493 23.207 20.1396 23.5958C20.1299 23.9847 19.9792 24.325 19.6875 24.6167C19.3959 24.9083 19.0556 25.0542 18.6667 25.0542C18.2778 25.0542 17.9375 24.9083 17.6459 24.6167L8.66252 15.6625C8.42919 15.4292 8.25419 15.1667 8.13752 14.875C8.02086 14.5833 7.96252 14.2917 7.96252 14C7.96252 13.7083 8.02086 13.4167 8.13752 13.125C8.25419 12.8333 8.42919 12.5708 8.66252 12.3375L17.6459 3.35417C17.9375 3.06251 18.2827 2.92153 18.6813 2.93126C19.0799 2.94098 19.425 3.09167 19.7167 3.38334C20.0084 3.67501 20.1542 4.01528 20.1542 4.40417C20.1542 4.79306 20.0084 5.13334 19.7167 5.42501L11.1417 14Z" fill="#B2B2B2"/>
</svg>
