<svg width="24" height="24" viewBox="0 0 24 24" fill="none" xmlns="http://www.w3.org/2000/svg">
<path d="M12 10.5C12.7 10.5 13.2917 10.2583 13.775 9.775C14.2583 9.29167 14.5 8.7 14.5 8C14.5 7.3 14.2583 6.70833 13.775 6.225C13.2917 5.74167 12.7 5.5 12 5.5C11.3 5.5 10.7083 5.74167 10.225 6.225C9.74165 6.70833 9.49999 7.3 9.49999 8C9.49999 8.7 9.74165 9.29167 10.225 9.775C10.7083 10.2583 11.3 10.5 12 10.5ZM12 15C11.35 15 10.7625 14.8208 10.2375 14.4625C9.71249 14.1042 9.33332 13.6333 9.09999 13.05C9.01665 13.05 8.94165 13.0542 8.87499 13.0625C8.80832 13.0708 8.73332 13.075 8.64999 13.075C7.78332 13.075 7.04165 12.7667 6.42499 12.15C5.80832 11.5333 5.49999 10.7917 5.49999 9.925C5.49999 9.575 5.55832 9.2375 5.67499 8.9125C5.79165 8.5875 5.96665 8.28333 6.19999 8C5.98332 7.71667 5.81665 7.4125 5.69999 7.0875C5.58332 6.7625 5.52499 6.425 5.52499 6.075C5.52499 5.20833 5.82915 4.46667 6.43749 3.85C7.04582 3.23333 7.78332 2.925 8.64999 2.925C8.73332 2.925 8.80832 2.92917 8.87499 2.9375C8.94165 2.94583 9.01665 2.95 9.09999 2.95C9.33332 2.36667 9.71249 1.89583 10.2375 1.5375C10.7625 1.17917 11.35 1 12 1C12.65 1 13.2375 1.17917 13.7625 1.5375C14.2875 1.89583 14.6667 2.36667 14.9 2.95C14.9833 2.95 15.0583 2.94583 15.125 2.9375C15.1917 2.92917 15.2667 2.925 15.35 2.925C16.2167 2.925 16.9542 3.23333 17.5625 3.85C18.1708 4.46667 18.475 5.20833 18.475 6.075C18.475 6.425 18.4208 6.7625 18.3125 7.0875C18.2042 7.4125 18.0333 7.71667 17.8 8C18.0167 8.28333 18.1833 8.5875 18.3 8.9125C18.4167 9.2375 18.475 9.575 18.475 9.925C18.475 10.7917 18.1708 11.5333 17.5625 12.15C16.9542 12.7667 16.2167 13.075 15.35 13.075C15.2667 13.075 15.1917 13.0708 15.125 13.0625C15.0583 13.0542 14.9833 13.05 14.9 13.05C14.6667 13.6333 14.2875 14.1042 13.7625 14.4625C13.2375 14.8208 12.65 15 12 15ZM12 21.975C12 19.875 12.6333 18.0167 13.9 16.4C15.1667 14.7833 16.775 13.7333 18.725 13.25C19.0417 13.1667 19.3542 13.1375 19.6625 13.1625C19.9708 13.1875 20.2417 13.3167 20.475 13.55C20.675 13.7667 20.7875 14.025 20.8125 14.325C20.8375 14.625 20.8083 14.9167 20.725 15.2C20.2583 17.1667 19.2125 18.7875 17.5875 20.0625C15.9625 21.3375 14.1 21.975 12 21.975ZM12 22C12 19.9 11.3667 18.0417 10.1 16.425C8.83332 14.8083 7.22499 13.7583 5.27499 13.275C4.95832 13.1917 4.64582 13.1625 4.33749 13.1875C4.02915 13.2125 3.75832 13.3417 3.52499 13.575C3.32499 13.7917 3.21249 14.05 3.18749 14.35C3.16249 14.65 3.19165 14.9417 3.27499 15.225C3.74165 17.1917 4.78749 18.8125 6.41249 20.0875C8.03749 21.3625 9.89999 22 12 22Z" fill="#364155"/>
</svg>
