<svg width="58" height="57" viewBox="0 0 58 57" fill="none" xmlns="http://www.w3.org/2000/svg">
<rect x="0.5" width="57" height="57" rx="28.5" fill="white" fill-opacity="0.24"/>
<path d="M29.6328 17C36.8938 17 42.7861 21.4309 42.7861 26.8301C42.7861 32.2292 36.9132 36.6698 29.6523 36.6699C28.8583 36.6662 28.0649 36.6125 27.2783 36.5098L21.9502 39.9111C21.887 39.9625 21.8077 39.9937 21.7246 40C21.6247 39.9997 21.5282 39.9648 21.4531 39.9023C21.4016 39.8532 21.3652 39.7911 21.3486 39.7236C21.3321 39.6563 21.3361 39.5861 21.3594 39.5205L22.5977 35.1426C18.939 33.3932 16.5 30.3289 16.5 26.8301C16.5001 21.4399 22.3626 17.0002 29.6328 17ZM25.9287 23.8994C25.765 23.8925 25.6025 23.9295 25.46 24.0059C25.3261 24.0884 25.2288 24.2152 25.1875 24.3613L23.1992 29.4678C23.1617 29.5654 23.0958 29.6719 23.0957 29.7695C23.0796 29.8577 23.0796 29.948 23.0957 30.0361C23.0908 30.0862 23.0908 30.1365 23.0957 30.1865C23.1232 30.3337 23.2065 30.4665 23.3301 30.5596C23.4568 30.6497 23.612 30.6972 23.7705 30.6934C23.917 30.7108 24.0656 30.679 24.1904 30.6045C24.3153 30.53 24.4095 30.4167 24.4561 30.2842L24.8496 29.1924H27.3174L27.7109 30.2842C27.7586 30.4141 27.8513 30.5255 27.9736 30.5996C28.0962 30.6737 28.242 30.707 28.3867 30.6934C28.4807 30.6955 28.5741 30.679 28.6611 30.6455C28.7483 30.6119 28.8278 30.5618 28.8936 30.498C28.9613 30.44 29.0142 30.3678 29.0498 30.2881C29.0854 30.2084 29.1028 30.1226 29.0996 30.0361C29.1028 29.9799 29.1028 29.9234 29.0996 29.8672C29.067 29.732 29.0262 29.5986 28.9775 29.4678L27.1016 24.4502C27.0567 24.2724 26.9425 24.1167 26.7822 24.0146C26.6311 23.9334 26.4589 23.8935 26.2852 23.8994H25.9287ZM19.6787 24.0156C19.477 24.0131 19.2796 24.0716 19.1162 24.1836C19.0422 24.2378 18.9826 24.3083 18.9434 24.3887C18.9043 24.4689 18.8862 24.5572 18.8906 24.6455C18.8861 24.6928 18.8861 24.7408 18.8906 24.7881C18.9056 24.8625 18.9373 24.9335 18.9824 24.9961C19.0275 25.0584 19.0857 25.1112 19.1533 25.1514C19.3063 25.2374 19.4823 25.2812 19.6602 25.2764H21.0957L21.1045 29.9473C21.0952 30.012 21.0952 30.0778 21.1045 30.1426C21.1353 30.3003 21.2259 30.442 21.3584 30.542C21.4975 30.6443 21.6696 30.698 21.8457 30.6934C21.9463 30.6971 22.047 30.6806 22.1406 30.6455C22.2343 30.6103 22.32 30.5574 22.3906 30.4893C22.4642 30.4181 22.5215 30.3325 22.5586 30.2393C22.5956 30.1461 22.6111 30.0467 22.6055 29.9473V25.2764H23.9941C24.1926 25.285 24.3883 25.2282 24.5479 25.1162C24.622 25.0602 24.6806 24.988 24.7197 24.9062C24.7588 24.8245 24.7779 24.7352 24.7734 24.6455C24.778 24.6014 24.778 24.5568 24.7734 24.5127C24.7609 24.4374 24.73 24.3657 24.6846 24.3027C24.6392 24.2399 24.5801 24.1869 24.5107 24.1484C24.3604 24.0558 24.1832 24.0097 24.0039 24.0156H19.6787ZM38.8086 23.8994C38.6965 23.8974 38.5856 23.9252 38.4893 23.9795C38.3871 24.0566 38.2906 24.1401 38.1992 24.2285L35.8252 26.8213V24.459C35.7948 24.2988 35.7053 24.1539 35.5723 24.0508C35.4188 23.945 35.2315 23.8927 35.042 23.9023C34.8523 23.912 34.6718 23.9836 34.5312 24.1045C34.393 24.254 34.3187 24.4469 34.3242 24.6455L34.2686 29.9033C34.2593 29.9681 34.2593 30.0339 34.2686 30.0986C34.2994 30.2563 34.389 30.3981 34.5215 30.498C34.6578 30.5991 34.8269 30.6528 35 30.6494C35.1036 30.6535 35.2069 30.6367 35.3037 30.6016C35.4005 30.5664 35.4884 30.5129 35.5625 30.4443C35.7007 30.2949 35.7751 30.1019 35.7695 29.9033V28.4199L36.6045 27.5938L38.3486 30.2578C38.4209 30.3827 38.5245 30.49 38.6494 30.5693C38.7648 30.6267 38.8942 30.6545 39.0244 30.6494C39.2205 30.652 39.4119 30.5923 39.5684 30.4805C39.6516 30.4135 39.717 30.3283 39.7578 30.2324C39.7986 30.1365 39.8136 30.0326 39.8027 29.9297V29.8857C39.751 29.7364 39.6755 29.595 39.5781 29.4678V29.3789L37.7021 26.626L39.2588 25.0098C39.3274 24.9364 39.3877 24.8564 39.4375 24.7705C39.4864 24.6893 39.5124 24.5973 39.5127 24.5039V24.3887C39.4994 24.3171 39.4705 24.2485 39.4287 24.1875C39.3868 24.1265 39.3323 24.0738 39.2686 24.0332C39.1332 23.9456 38.9726 23.8986 38.8086 23.8994ZM30.0742 23.8994C29.972 23.8949 29.8698 23.9111 29.7744 23.9463C29.6791 23.9815 29.5925 24.0357 29.5205 24.1045C29.379 24.2521 29.305 24.4464 29.3145 24.6455L29.3428 29.6982C29.3359 29.7957 29.3359 29.8938 29.3428 29.9912C29.3715 30.1684 29.4723 30.3282 29.624 30.4355C29.7936 30.5401 29.9944 30.5904 30.1963 30.5781H33.3672C33.569 30.5806 33.7662 30.5212 33.9297 30.4092C34.0037 30.355 34.0633 30.2845 34.1025 30.2041C34.1416 30.1238 34.1597 30.0356 34.1553 29.9473V29.8145C34.1409 29.7397 34.1097 29.6682 34.0645 29.6055C34.0193 29.5429 33.9607 29.49 33.8926 29.4502C33.7406 29.361 33.5645 29.3142 33.3857 29.3164H30.8057V24.6455C30.8149 24.5837 30.8149 24.5208 30.8057 24.459C30.7785 24.2997 30.6918 24.1549 30.5615 24.0508C30.421 23.9511 30.2498 23.8975 30.0742 23.8994ZM27.0078 28.1885H25.2344L26.126 25.5244L27.0078 28.1885Z" fill="#FDFDFE"/>
<rect width="22" height="10" transform="translate(18.5 22)" fill="white"/>
</svg>
