<svg width="7" height="11" viewBox="0 0 7 11" fill="none" xmlns="http://www.w3.org/2000/svg">
<path d="M6.16667 10.6667H4.83333V10H4.16667V9.33333H3.5V8.66667H2.83333V8H2.16667V7.33333H1.5V6.66667H0.833333V6H0.166667V5.33333V4.66667H0.833333V4H1.5V3.33333H2.16667V2.66667H2.83333V2H3.5V1.33333H4.16667V0.666666H4.83333V0H6.16667V0.666666H5.5V1.33333H4.83333V2H4.16667V2.66667H3.5V3.33333H2.83333V4H2.16667V4.66667H1.5V5.33333V6H2.16667V6.66667H2.83333V7.33333H3.5V8H4.16667V8.66667H4.83333V9.33333H5.5V10H6.16667V10.6667Z" fill="#1D1D1D"/>
</svg>
