<svg width="22" height="20" viewBox="0 0 22 20" fill="none" xmlns="http://www.w3.org/2000/svg">
<path d="M12 10.6V7.00002C12 6.71669 11.9042 6.47919 11.7125 6.28752C11.5209 6.09586 11.2834 6.00002 11 6.00002C10.7167 6.00002 10.4792 6.09586 10.2875 6.28752C10.0959 6.47919 10 6.71669 10 7.00002V10.975C10 11.1084 10.025 11.2375 10.075 11.3625C10.125 11.4875 10.2 11.6 10.3 11.7L13.1 14.5C13.2834 14.6834 13.5167 14.775 13.8 14.775C14.0834 14.775 14.3167 14.6834 14.5 14.5C14.6834 14.3167 14.775 14.0834 14.775 13.8C14.775 13.5167 14.6834 13.2834 14.5 13.1L12 10.6ZM11 20C9.75002 20 8.57919 19.7625 7.48752 19.2875C6.39586 18.8125 5.44586 18.1709 4.63752 17.3625C3.82919 16.5542 3.18752 15.6042 2.71252 14.5125C2.23752 13.4209 2.00002 12.25 2.00002 11C2.00002 9.75002 2.23752 8.57919 2.71252 7.48752C3.18752 6.39586 3.82919 5.44586 4.63752 4.63752C5.44586 3.82919 6.39586 3.18752 7.48752 2.71252C8.57919 2.23752 9.75002 2.00002 11 2.00002C12.25 2.00002 13.4209 2.23752 14.5125 2.71252C15.6042 3.18752 16.5542 3.82919 17.3625 4.63752C18.1709 5.44586 18.8125 6.39586 19.2875 7.48752C19.7625 8.57919 20 9.75002 20 11C20 12.25 19.7625 13.4209 19.2875 14.5125C18.8125 15.6042 18.1709 16.5542 17.3625 17.3625C16.5542 18.1709 15.6042 18.8125 14.5125 19.2875C13.4209 19.7625 12.25 20 11 20ZM1.05002 5.30002C0.866691 5.11669 0.775024 4.88336 0.775024 4.60002C0.775024 4.31669 0.866691 4.08336 1.05002 3.90002L3.90002 1.05002C4.08336 0.866691 4.31669 0.775024 4.60002 0.775024C4.88336 0.775024 5.11669 0.866691 5.30002 1.05002C5.48336 1.23336 5.57502 1.46669 5.57502 1.75002C5.57502 2.03336 5.48336 2.26669 5.30002 2.45002L2.45002 5.30002C2.26669 5.48336 2.03336 5.57502 1.75002 5.57502C1.46669 5.57502 1.23336 5.48336 1.05002 5.30002ZM20.95 5.30002C20.7667 5.48336 20.5334 5.57502 20.25 5.57502C19.9667 5.57502 19.7334 5.48336 19.55 5.30002L16.7 2.45002C16.5167 2.26669 16.425 2.03336 16.425 1.75002C16.425 1.46669 16.5167 1.23336 16.7 1.05002C16.8834 0.866691 17.1167 0.775024 17.4 0.775024C17.6834 0.775024 17.9167 0.866691 18.1 1.05002L20.95 3.90002C21.1334 4.08336 21.225 4.31669 21.225 4.60002C21.225 4.88336 21.1334 5.11669 20.95 5.30002Z" fill="url(#paint0_linear_576_1195)"/>
<defs>
<linearGradient id="paint0_linear_576_1195" x1="11" y1="0.775024" x2="11" y2="20" gradientUnits="userSpaceOnUse">
<stop stop-color="#252728"/>
<stop offset="1" stop-color="#848587"/>
</linearGradient>
</defs>
</svg>
