<svg width="16" height="20" viewBox="0 0 16 20" fill="none" xmlns="http://www.w3.org/2000/svg">
<path d="M8 19.325C7.76667 19.325 7.53333 19.2833 7.3 19.2C7.06667 19.1167 6.85833 18.9917 6.675 18.825C5.59167 17.825 4.63333 16.85 3.8 15.9C2.96667 14.95 2.27083 14.0292 1.7125 13.1375C1.15417 12.2458 0.729167 11.3875 0.4375 10.5625C0.145833 9.7375 0 8.95 0 8.2C0 5.7 0.804167 3.70833 2.4125 2.225C4.02083 0.741667 5.88333 0 8 0C10.1167 0 11.9792 0.741667 13.5875 2.225C15.1958 3.70833 16 5.7 16 8.2C16 8.95 15.8542 9.7375 15.5625 10.5625C15.2708 11.3875 14.8458 12.2458 14.2875 13.1375C13.7292 14.0292 13.0333 14.95 12.2 15.9C11.3667 16.85 10.4083 17.825 9.325 18.825C9.14167 18.9917 8.93333 19.1167 8.7 19.2C8.46667 19.2833 8.23333 19.325 8 19.325ZM8 14C8.28333 14 8.52917 13.8958 8.7375 13.6875C8.94583 13.4792 9.05 13.2333 9.05 12.95C9.05 12.6667 8.94583 12.4208 8.7375 12.2125C8.52917 12.0042 8.28333 11.9 8 11.9C7.71667 11.9 7.47083 12.0042 7.2625 12.2125C7.05417 12.4208 6.95 12.6667 6.95 12.95C6.95 13.2333 7.05417 13.4792 7.2625 13.6875C7.47083 13.8958 7.71667 14 8 14ZM8.025 10.9C8.225 10.9 8.39583 10.8292 8.5375 10.6875C8.67917 10.5458 8.75 10.375 8.75 10.175C8.75 10.0417 8.78333 9.89583 8.85 9.7375C8.91667 9.57917 9.00833 9.43333 9.125 9.3C9.20833 9.21667 9.30833 9.12083 9.425 9.0125C9.54167 8.90417 9.66667 8.78333 9.8 8.65C10.15 8.3 10.4125 7.95 10.5875 7.6C10.7625 7.25 10.85 6.9 10.85 6.55C10.85 5.8 10.5667 5.1875 10 4.7125C9.43333 4.2375 8.76667 4 8 4C7.43333 4 6.90417 4.14583 6.4125 4.4375C5.92083 4.72917 5.55833 5.13333 5.325 5.65C5.24167 5.83333 5.23333 6.02083 5.3 6.2125C5.36667 6.40417 5.49167 6.54167 5.675 6.625C5.85833 6.70833 6.04583 6.71667 6.2375 6.65C6.42917 6.58333 6.56667 6.45833 6.65 6.275C6.78333 6.025 6.97083 5.825 7.2125 5.675C7.45417 5.525 7.71667 5.45 8 5.45C8.35 5.45 8.6625 5.55833 8.9375 5.775C9.2125 5.99167 9.35 6.26667 9.35 6.6C9.35 6.88333 9.28333 7.13333 9.15 7.35C9.01667 7.56667 8.75833 7.83333 8.375 8.15C8.20833 8.28333 8.06667 8.40833 7.95 8.525C7.83333 8.64167 7.73333 8.76667 7.65 8.9C7.53333 9.08333 7.44167 9.26667 7.375 9.45C7.30833 9.63333 7.275 9.80833 7.275 9.975C7.275 10.2083 7.34167 10.4208 7.475 10.6125C7.60833 10.8042 7.79167 10.9 8.025 10.9Z" fill="url(#paint0_linear_576_1257)"/>
<defs>
<linearGradient id="paint0_linear_576_1257" x1="8" y1="0" x2="8" y2="19.325" gradientUnits="userSpaceOnUse">
<stop stop-color="#252728"/>
<stop offset="1" stop-color="#848587"/>
</linearGradient>
</defs>
</svg>
