<svg width="72" height="72" viewBox="0 0 72 72" fill="none" xmlns="http://www.w3.org/2000/svg">
<path d="M27 33C25.3 33 23.875 32.425 22.725 31.275C21.575 30.125 21 28.7 21 27V12C21 10.35 21.575 8.9375 22.725 7.7625C23.875 6.5875 25.3 6 27 6H45V33H27ZM51 33V6H60C61.65 6 63.0625 6.5875 64.2375 7.7625C65.4125 8.9375 66 10.35 66 12V27C66 28.7 65.4125 30.125 64.2375 31.275C63.0625 32.425 61.65 33 60 33H51ZM24 63V39H44.4C45.1 39 45.7 39.2 46.2 39.6C46.7 40 47.05 40.475 47.25 41.025C47.45 41.575 47.4875 42.15 47.3625 42.75C47.2375 43.35 46.9 43.875 46.35 44.325L41.925 48H32.25C31.6 48 31.0625 48.225 30.6375 48.675C30.2125 49.125 30 49.65 30 50.25C30 50.9 30.2125 51.4375 30.6375 51.8625C31.0625 52.2875 31.575 52.5 32.175 52.5H41.325C42.025 52.5 42.7125 52.3875 43.3875 52.1625C44.0625 51.9375 44.675 51.6 45.225 51.15L55.65 42.45C56.75 41.65 57.9125 41.15 59.1375 40.95C60.3625 40.75 61.575 40.8 62.775 41.1C63.975 41.4 65.1125 41.9125 66.1875 42.6375C67.2625 43.3625 68.175 44.3 68.925 45.45L51.3 60.225C50.2 61.125 49 61.8125 47.7 62.2875C46.4 62.7625 45.05 63 43.65 63H24ZM9 66C8.15 66 7.4375 65.7125 6.8625 65.1375C6.2875 64.5625 6 63.85 6 63V42C6 41.15 6.2875 40.4375 6.8625 39.8625C7.4375 39.2875 8.15 39 9 39H18V63C18 63.85 17.7125 64.5625 17.1375 65.1375C16.5625 65.7125 15.85 66 15 66H9Z" fill="#252728"/>
</svg>
